<svg xmlns="http://www.w3.org/2000/svg" enable-background="new 0 0 20 20" viewBox="0 0 20 20"><linearGradient id="a" x1="4" x2="9.539" y1="14.231" y2="14.231" gradientUnits="userSpaceOnUse"><stop offset="0" stop-color="#ffc80b"/><stop offset="1" stop-color="#e89318"/></linearGradient><circle cx="6.8" cy="14.2" r="2.8" fill="url(#a)"/><linearGradient id="b" x1="10.461" x2="16" y1="7.769" y2="7.769" gradientUnits="userSpaceOnUse"><stop offset="0" stop-color="#59d672"/><stop offset="1" stop-color="#46a56f"/></linearGradient><path fill="url(#b)" d="M15.5,10.5H11c-0.3,0-0.5-0.2-0.5-0.5V5.5C10.5,5.2,10.7,5,11,5h4.5C15.8,5,16,5.2,16,5.5    V10C16,10.3,15.8,10.5,15.5,10.5z"/><linearGradient id="c" x1="10.461" x2="16" y1="14.231" y2="14.231" gradientUnits="userSpaceOnUse"><stop offset="0" stop-color="#ff5640"/><stop offset="1" stop-color="#cc3737"/></linearGradient><path fill="url(#c)" d="M15.5,17c-0.1,0-0.2,0-0.3-0.1l-4.6-4.6c-0.2-0.2-0.2-0.5,0-0.7s0.5-0.2,0.7,0l4.6,4.6    c0.2,0.2,0.2,0.5,0,0.7C15.8,17,15.7,17,15.5,17z"/><linearGradient id="d" x1="10.461" x2="16" y1="14.231" y2="14.231" gradientUnits="userSpaceOnUse"><stop offset="0" stop-color="#ff5640"/><stop offset="1" stop-color="#cc3737"/></linearGradient><path fill="url(#d)" d="M10.9,17c0.1,0,0.2,0,0.3-0.1l4.6-4.6c0.2-0.2,0.2-0.5,0-0.7c-0.2-0.2-0.5-0.2-0.7,0    l-4.6,4.6c-0.2,0.2-0.2,0.5,0,0.7C10.7,17,10.8,17,10.9,17z"/><linearGradient id="e" x1="4" x2="9.539" y1="7.769" y2="7.769" gradientUnits="userSpaceOnUse"><stop offset="0" stop-color="#708afb"/><stop offset="1" stop-color="#426de8"/></linearGradient><path fill="url(#e)" d="M9.1,10.5H4.5c-0.3,0-0.6-0.3-0.4-0.6l2.3-4.6c0.2-0.3,0.7-0.3,0.8,0l2.3,4.6    C9.6,10.2,9.4,10.5,9.1,10.5z"/></svg>